<?xml version="1.0" standalone="no"?><!DOCTYPE svg PUBLIC "-//W3C//DTD SVG 1.1//EN" "http://www.w3.org/Graphics/SVG/1.1/DTD/svg11.dtd"><svg t="1577265045119" class="icon" viewBox="0 0 1024 1024" version="1.1" xmlns="http://www.w3.org/2000/svg" p-id="1769" xmlns:xlink="http://www.w3.org/1999/xlink" width="200" height="200"><defs><style type="text/css"></style></defs><path d="M887.22714367 717.99204968c0 16.57240199-3.488927 34.017036-11.339012 52.33390099-7.850085 19.189097-17.444634 34.017036-28.783646 45.35604801l-69.778535 70.650767c10.46678-11.339012 20.061329-26.166951 27.911414-45.356048s12.211244-36.633731 12.211244-52.333901l-0.872232-593.989779c0-15.70017-6.105622-29.655877-17.444633-40.122657-10.46678-11.339012-24.42248701-16.572402-39.250426-16.572402l-295.686542-0.872232c0-13.08347499 0-23.55025601 2.616695-30.528109 1.744463-7.850085 6.105622-15.70017 13.955707-23.550255 10.46678-10.46678 24.42248701-16.572402 40.12265799-16.572403l308.77001701 0.872232c15.70017 0 28.783646 5.23339 40.122657 16.572402s16.572402 24.42248701 17.444634 40.122658L887.22714367 717.99204968z m-689.063032-325.342419L345.57126668 246.11470768c15.70017-15.70017 36.63373101-26.166951 61.92844899-30.528109L407.49971567 455.45031268l-239.863713 0c5.23339-26.166951 14.827939-47.100511 30.528109-62.800682zM407.49971567 516.50653068c13.08347499 0 23.550256-4.361158 32.272573-13.083476s13.083475-19.189097 13.083475-32.272572l0-255.563884L709.29187967 215.58659867c12.211244 0 22.678024 4.361158 31.400341 13.08347501 9.594549 8.722317 13.955707 19.189097 13.955707 32.272573L754.64792767 893.31061868c0 13.08347499-4.361158 23.550256-13.955707 32.272573-8.722317 8.722317-19.189097 13.083475-31.400341 13.083475l-512.872232 0c-12.211244 0-22.678024-4.361158-31.40034-13.083475s-13.083475-19.189097-13.083476-32.27257301l0-376.80408799L407.49971567 516.50653068zM619.45201567 620.30210067l-327.08688199 1e-8-1e-8 57.567292L619.45201567 677.86939268l0-57.56729201z m0 134.32368002l-327.086882 0L292.36513367 813.06530368 619.45201567 813.06530368l0-58.43952299z" p-id="1770"></path></svg>