<?xml version="1.0" standalone="no"?><!DOCTYPE svg PUBLIC "-//W3C//DTD SVG 1.1//EN" "http://www.w3.org/Graphics/SVG/1.1/DTD/svg11.dtd"><svg t="1577265040334" class="icon" viewBox="0 0 1024 1024" version="1.1" xmlns="http://www.w3.org/2000/svg" p-id="1657" xmlns:xlink="http://www.w3.org/1999/xlink" width="200" height="200"><defs><style type="text/css"></style></defs><path d="M615.14657035 415.10063502L615.14657035 713.10970103q0 7.42701699 4.641885 12.06890299t12.068903 4.641886l33.421578 0q7.42701699 0 12.068903-4.641886t4.641886-12.068903l0-298.009066q0-7.42701699-4.641886-12.068903t-12.068903-4.641886l-33.421578 0q-7.42701699 0-12.068903 4.641886t-4.641885 12.068903z m-132.757933 0L482.38863735 713.10970103q0 7.42701699 4.641885 12.06890299t12.068903 4.641886l33.421578 0q7.42701699 0 12.068903-4.641886t4.641886-12.068903l0-298.009066q0-7.42701699-4.641886-12.068903t-12.068903-4.641886l-33.421578 0q-7.42701699 0-12.068903 4.641886t-4.641885 12.068903z m-131.829556 0L350.55908136 713.10970102q0 7.42701699 4.64188599 12.068903t11.140526 4.641886l33.421577 0q7.42701699 0 12.068903-4.641886t4.641886-12.068903l0-298.009066q0-7.42701699-4.641886-12.068903t-12.068903-4.641886l-33.421577 0q-6.49864 0-11.140526 4.641886t-4.641886 12.068903z m-66.843155 375.06437001l0-491.11151501L747.90450336 299.05349002 747.90450335 790.16500502q0 11.140526-3.713509 20.42429701t-7.427017 13.92565699-5.570263 4.64188601l-430.766999-1e-8q-1.85675399 0-5.570263-4.641886t-7.427017-13.925657-3.713509-20.42429699zM631.85735834 232.21033502l-232.09428799-1e-8 25.066183-60.34451499q3.713509-4.641886 8.355395-5.570262L597.50740435 166.29555802q5.570263 0.928377 9.283771 5.570262z m-480.899365 16.710789l1e-8 33.421578q0 7.42701699 4.641886 12.068903t12.068903 4.641885l50.132366 1e-8L217.80114835 790.16500502q0 42.705349 24.137806 74.270172t58.487761 31.564823L731.19371435 896.00000002q34.34995499 0 58.48776-30.636446T814.74765835 792.02175902l0-492.968269L863.95164735 299.05349003q7.42701699 0 12.068903-4.64188501t4.641885-12.068903l-1e-8-33.421578q0-7.42701699-4.64188499-12.068903t-12.068903-4.641886l-159.680871 0-36.206709-86.339075q-8.355394-19.49592-28.779691-32.4932t-40.848595-13.92565699l-165.251133-1e-8q-21.352675 0-40.848595 13.925657t-27.85131501 32.4932l-36.20670899 86.339075-160.609247-1e-8q-7.42701699 0-12.068903 4.64188601t-4.64188601 12.068903z" p-id="1658"></path></svg>